<svg xmlns="http://www.w3.org/2000/svg" viewBox="0 0 512 512" role="img" aria-label="Stabilize">
  <defs>
    <linearGradient id="sky" x1="0" y1="0" x2="0" y2="1">
      <stop offset="0" stop-color="#e8c98c"/>
      <stop offset="0.48" stop-color="#7aa58c"/>
      <stop offset="1" stop-color="#173f31"/>
    </linearGradient>
  </defs>
  <rect width="512" height="512" rx="112" fill="url(#sky)"/>
  <circle cx="352" cy="142" r="46" fill="#fff3c8" opacity="0.9"/>
  <path d="M0 324 128 196l74 78 74-98 236 206v130H0Z" fill="#275f48"/>
  <path d="M0 374 120 282l88 74 92-84 212 154v86H0Z" fill="#173f31"/>
  <path d="M86 402c77-34 147-42 218-17 48 17 89 18 122 7-41 51-102 82-184 82-69 0-121-24-156-72Z" fill="#d8eadf" opacity="0.92"/>
</svg>
